<mxfile host="Electron" modified="2023-04-18T12:44:49.347Z" agent="Mozilla/5.0 (Windows NT 10.0; Win64; x64) AppleWebKit/537.36 (KHTML, like Gecko) draw.io/21.1.2 Chrome/106.0.5249.199 Electron/21.4.3 Safari/537.36" etag="kfuI2-kygX24J0ZT433T" version="21.1.2" type="device">
  <diagram name="Page-1" id="3S8-G3aAUuqEwP1VlN61">
    <mxGraphModel dx="1900" dy="1721" grid="1" gridSize="10" guides="1" tooltips="1" connect="1" arrows="1" fold="1" page="1" pageScale="1" pageWidth="850" pageHeight="1100" math="0" shadow="0">
      <root>
        <mxCell id="0" />
        <mxCell id="1" parent="0" />
        <mxCell id="4ziBVuI6i2216CSkwjeK-7" value="&lt;b&gt;מטופל&lt;/b&gt;" style="swimlane;fontStyle=0;childLayout=stackLayout;horizontal=1;startSize=30;horizontalStack=0;resizeParent=1;resizeParentMax=0;resizeLast=0;collapsible=1;marginBottom=0;whiteSpace=wrap;html=1;align=right;" vertex="1" parent="1">
          <mxGeometry x="530" width="150" height="270" as="geometry">
            <mxRectangle x="360" y="250" width="80" height="30" as="alternateBounds" />
          </mxGeometry>
        </mxCell>
        <mxCell id="4ziBVuI6i2216CSkwjeK-9" value="&lt;u&gt;ת.ז&lt;/u&gt;" style="text;strokeColor=none;fillColor=none;align=right;verticalAlign=middle;spacingLeft=4;spacingRight=4;overflow=hidden;points=[[0,0.5],[1,0.5]];portConstraint=eastwest;rotatable=0;whiteSpace=wrap;html=1;" vertex="1" parent="4ziBVuI6i2216CSkwjeK-7">
          <mxGeometry y="30" width="150" height="30" as="geometry" />
        </mxCell>
        <mxCell id="4ziBVuI6i2216CSkwjeK-10" value="שם פרטי" style="text;strokeColor=none;fillColor=none;align=right;verticalAlign=middle;spacingLeft=4;spacingRight=4;overflow=hidden;points=[[0,0.5],[1,0.5]];portConstraint=eastwest;rotatable=0;whiteSpace=wrap;html=1;" vertex="1" parent="4ziBVuI6i2216CSkwjeK-7">
          <mxGeometry y="60" width="150" height="30" as="geometry" />
        </mxCell>
        <mxCell id="4ziBVuI6i2216CSkwjeK-12" value="שם משפחה" style="text;strokeColor=none;fillColor=none;spacingLeft=4;spacingRight=4;overflow=hidden;rotatable=0;points=[[0,0.5],[1,0.5]];portConstraint=eastwest;fontSize=12;whiteSpace=wrap;html=1;align=right;" vertex="1" parent="4ziBVuI6i2216CSkwjeK-7">
          <mxGeometry y="90" width="150" height="30" as="geometry" />
        </mxCell>
        <mxCell id="4ziBVuI6i2216CSkwjeK-13" value="תאריך לידה" style="text;strokeColor=none;fillColor=none;spacingLeft=4;spacingRight=4;overflow=hidden;rotatable=0;points=[[0,0.5],[1,0.5]];portConstraint=eastwest;fontSize=12;whiteSpace=wrap;html=1;align=right;" vertex="1" parent="4ziBVuI6i2216CSkwjeK-7">
          <mxGeometry y="120" width="150" height="30" as="geometry" />
        </mxCell>
        <mxCell id="4ziBVuI6i2216CSkwjeK-14" value="מספר טלפון" style="text;strokeColor=none;fillColor=none;spacingLeft=4;spacingRight=4;overflow=hidden;rotatable=0;points=[[0,0.5],[1,0.5]];portConstraint=eastwest;fontSize=12;whiteSpace=wrap;html=1;align=right;" vertex="1" parent="4ziBVuI6i2216CSkwjeK-7">
          <mxGeometry y="150" width="150" height="30" as="geometry" />
        </mxCell>
        <mxCell id="4ziBVuI6i2216CSkwjeK-15" value="מגדר" style="text;strokeColor=none;fillColor=none;spacingLeft=4;spacingRight=4;overflow=hidden;rotatable=0;points=[[0,0.5],[1,0.5]];portConstraint=eastwest;fontSize=12;whiteSpace=wrap;html=1;align=right;" vertex="1" parent="4ziBVuI6i2216CSkwjeK-7">
          <mxGeometry y="180" width="150" height="30" as="geometry" />
        </mxCell>
        <mxCell id="4ziBVuI6i2216CSkwjeK-16" value="כתובת" style="text;strokeColor=none;fillColor=none;align=right;verticalAlign=middle;spacingLeft=4;spacingRight=4;overflow=hidden;points=[[0,0.5],[1,0.5]];portConstraint=eastwest;rotatable=0;whiteSpace=wrap;html=1;" vertex="1" parent="4ziBVuI6i2216CSkwjeK-7">
          <mxGeometry y="210" width="150" height="30" as="geometry" />
        </mxCell>
        <mxCell id="4ziBVuI6i2216CSkwjeK-17" value="כתובת אימייל" style="text;strokeColor=none;fillColor=none;align=right;verticalAlign=middle;spacingLeft=4;spacingRight=4;overflow=hidden;points=[[0,0.5],[1,0.5]];portConstraint=eastwest;rotatable=0;whiteSpace=wrap;html=1;" vertex="1" parent="4ziBVuI6i2216CSkwjeK-7">
          <mxGeometry y="240" width="150" height="30" as="geometry" />
        </mxCell>
        <mxCell id="4ziBVuI6i2216CSkwjeK-41" value="" style="edgeStyle=orthogonalEdgeStyle;rounded=0;orthogonalLoop=1;jettySize=auto;html=1;shape=flexArrow;exitX=0.5;exitY=0;exitDx=0;exitDy=0;width=6;endSize=5;" edge="1" parent="1" source="4ziBVuI6i2216CSkwjeK-33" target="4ziBVuI6i2216CSkwjeK-37">
          <mxGeometry relative="1" as="geometry">
            <Array as="points">
              <mxPoint x="250" y="-50" />
              <mxPoint x="250" y="-50" />
            </Array>
          </mxGeometry>
        </mxCell>
        <mxCell id="4ziBVuI6i2216CSkwjeK-43" value="" style="edgeStyle=orthogonalEdgeStyle;rounded=0;orthogonalLoop=1;jettySize=auto;html=1;entryX=0.5;entryY=0;entryDx=0;entryDy=0;shape=flexArrow;" edge="1" parent="1" source="4ziBVuI6i2216CSkwjeK-33" target="4ziBVuI6i2216CSkwjeK-44">
          <mxGeometry relative="1" as="geometry">
            <mxPoint x="130" y="240" as="targetPoint" />
            <Array as="points">
              <mxPoint x="240" y="180" />
              <mxPoint x="240" y="180" />
            </Array>
          </mxGeometry>
        </mxCell>
        <mxCell id="4ziBVuI6i2216CSkwjeK-33" value="רופא" style="swimlane;fontStyle=0;childLayout=stackLayout;horizontal=1;startSize=26;horizontalStack=0;resizeParent=1;resizeParentMax=0;resizeLast=0;collapsible=1;marginBottom=0;align=center;fontSize=14;" vertex="1" parent="1">
          <mxGeometry x="170" y="40" width="160" height="116" as="geometry" />
        </mxCell>
        <mxCell id="4ziBVuI6i2216CSkwjeK-34" value="ת.ז" style="text;strokeColor=none;fillColor=none;spacingLeft=4;spacingRight=4;overflow=hidden;rotatable=0;points=[[0,0.5],[1,0.5]];portConstraint=eastwest;fontSize=12;whiteSpace=wrap;html=1;fontStyle=4" vertex="1" parent="4ziBVuI6i2216CSkwjeK-33">
          <mxGeometry y="26" width="160" height="30" as="geometry" />
        </mxCell>
        <mxCell id="4ziBVuI6i2216CSkwjeK-35" value="שם פרטי" style="text;strokeColor=none;fillColor=none;spacingLeft=4;spacingRight=4;overflow=hidden;rotatable=0;points=[[0,0.5],[1,0.5]];portConstraint=eastwest;fontSize=12;whiteSpace=wrap;html=1;" vertex="1" parent="4ziBVuI6i2216CSkwjeK-33">
          <mxGeometry y="56" width="160" height="30" as="geometry" />
        </mxCell>
        <mxCell id="4ziBVuI6i2216CSkwjeK-36" value="שם משפחה" style="text;strokeColor=none;fillColor=none;spacingLeft=4;spacingRight=4;overflow=hidden;rotatable=0;points=[[0,0.5],[1,0.5]];portConstraint=eastwest;fontSize=12;whiteSpace=wrap;html=1;" vertex="1" parent="4ziBVuI6i2216CSkwjeK-33">
          <mxGeometry y="86" width="160" height="30" as="geometry" />
        </mxCell>
        <mxCell id="4ziBVuI6i2216CSkwjeK-37" value="רופא משפחה" style="swimlane;fontStyle=0;childLayout=stackLayout;horizontal=1;startSize=26;horizontalStack=0;resizeParent=1;resizeParentMax=0;resizeLast=0;collapsible=1;marginBottom=0;align=center;fontSize=14;" vertex="1" parent="1">
          <mxGeometry x="170" y="-90" width="160" height="56" as="geometry" />
        </mxCell>
        <mxCell id="4ziBVuI6i2216CSkwjeK-38" value="תאריך תחילת עבודה" style="text;strokeColor=none;fillColor=none;spacingLeft=4;spacingRight=4;overflow=hidden;rotatable=0;points=[[0,0.5],[1,0.5]];portConstraint=eastwest;fontSize=12;whiteSpace=wrap;html=1;align=right;" vertex="1" parent="4ziBVuI6i2216CSkwjeK-37">
          <mxGeometry y="26" width="160" height="30" as="geometry" />
        </mxCell>
        <mxCell id="4ziBVuI6i2216CSkwjeK-44" value="רופא מקצועי" style="swimlane;fontStyle=0;childLayout=stackLayout;horizontal=1;startSize=26;horizontalStack=0;resizeParent=1;resizeParentMax=0;resizeLast=0;collapsible=1;marginBottom=0;align=center;fontSize=14;" vertex="1" parent="1">
          <mxGeometry x="160" y="230" width="160" height="56" as="geometry" />
        </mxCell>
        <mxCell id="4ziBVuI6i2216CSkwjeK-45" value="ותק" style="text;strokeColor=none;fillColor=none;spacingLeft=4;spacingRight=4;overflow=hidden;rotatable=0;points=[[0,0.5],[1,0.5]];portConstraint=eastwest;fontSize=12;whiteSpace=wrap;html=1;align=right;" vertex="1" parent="4ziBVuI6i2216CSkwjeK-44">
          <mxGeometry y="26" width="160" height="30" as="geometry" />
        </mxCell>
        <mxCell id="4ziBVuI6i2216CSkwjeK-101" style="edgeStyle=orthogonalEdgeStyle;rounded=0;orthogonalLoop=1;jettySize=auto;html=1;exitX=0.25;exitY=0;exitDx=0;exitDy=0;endArrow=ERmandOne;endFill=0;startArrow=ERzeroToMany;startFill=0;" edge="1" parent="1" source="4ziBVuI6i2216CSkwjeK-48">
          <mxGeometry relative="1" as="geometry">
            <mxPoint x="170" y="50" as="targetPoint" />
            <Array as="points">
              <mxPoint x="430" y="350" />
              <mxPoint x="100" y="350" />
              <mxPoint x="100" y="50" />
              <mxPoint x="170" y="50" />
            </Array>
          </mxGeometry>
        </mxCell>
        <mxCell id="4ziBVuI6i2216CSkwjeK-48" value="בדיקה  (1)" style="swimlane;fontStyle=0;childLayout=stackLayout;horizontal=1;startSize=26;horizontalStack=0;resizeParent=1;resizeParentMax=0;resizeLast=0;collapsible=1;marginBottom=0;align=center;fontSize=14;" vertex="1" parent="1">
          <mxGeometry x="390" y="390" width="160" height="146" as="geometry" />
        </mxCell>
        <mxCell id="4ziBVuI6i2216CSkwjeK-49" value="מספר בדיקה" style="text;strokeColor=none;fillColor=none;spacingLeft=4;spacingRight=4;overflow=hidden;rotatable=0;points=[[0,0.5],[1,0.5]];portConstraint=eastwest;fontSize=12;whiteSpace=wrap;html=1;align=right;fontStyle=4" vertex="1" parent="4ziBVuI6i2216CSkwjeK-48">
          <mxGeometry y="26" width="160" height="30" as="geometry" />
        </mxCell>
        <mxCell id="4ziBVuI6i2216CSkwjeK-50" value="תאריך ביצוע בדיקה" style="text;strokeColor=none;fillColor=none;spacingLeft=4;spacingRight=4;overflow=hidden;rotatable=0;points=[[0,0.5],[1,0.5]];portConstraint=eastwest;fontSize=12;whiteSpace=wrap;html=1;align=right;" vertex="1" parent="4ziBVuI6i2216CSkwjeK-48">
          <mxGeometry y="56" width="160" height="30" as="geometry" />
        </mxCell>
        <mxCell id="4ziBVuI6i2216CSkwjeK-51" value="&lt;span style=&quot;font-weight: normal;&quot;&gt;סיבת הפנייה&lt;/span&gt;" style="text;strokeColor=none;fillColor=none;spacingLeft=4;spacingRight=4;overflow=hidden;rotatable=0;points=[[0,0.5],[1,0.5]];portConstraint=eastwest;fontSize=12;whiteSpace=wrap;html=1;fontStyle=1;align=right;" vertex="1" parent="4ziBVuI6i2216CSkwjeK-48">
          <mxGeometry y="86" width="160" height="30" as="geometry" />
        </mxCell>
        <mxCell id="4ziBVuI6i2216CSkwjeK-55" value="&lt;span style=&quot;font-weight: normal;&quot;&gt;מידת דחיפות&lt;/span&gt;" style="text;strokeColor=none;fillColor=none;spacingLeft=4;spacingRight=4;overflow=hidden;rotatable=0;points=[[0,0.5],[1,0.5]];portConstraint=eastwest;fontSize=12;whiteSpace=wrap;html=1;fontStyle=1;align=right;" vertex="1" parent="4ziBVuI6i2216CSkwjeK-48">
          <mxGeometry y="116" width="160" height="30" as="geometry" />
        </mxCell>
        <mxCell id="4ziBVuI6i2216CSkwjeK-58" value="תחום מעבדה" style="swimlane;fontStyle=0;childLayout=stackLayout;horizontal=1;startSize=26;horizontalStack=0;resizeParent=1;resizeParentMax=0;resizeLast=0;collapsible=1;marginBottom=0;align=center;fontSize=14;" vertex="1" parent="1">
          <mxGeometry x="110" y="380" width="160" height="56" as="geometry" />
        </mxCell>
        <mxCell id="4ziBVuI6i2216CSkwjeK-84" value="שם" style="text;strokeColor=none;fillColor=none;spacingLeft=4;spacingRight=4;overflow=hidden;rotatable=0;points=[[0,0.5],[1,0.5]];portConstraint=eastwest;fontSize=12;whiteSpace=wrap;html=1;align=right;fontStyle=4" vertex="1" parent="4ziBVuI6i2216CSkwjeK-58">
          <mxGeometry y="26" width="160" height="30" as="geometry" />
        </mxCell>
        <mxCell id="4ziBVuI6i2216CSkwjeK-103" value="" style="edgeStyle=orthogonalEdgeStyle;rounded=0;orthogonalLoop=1;jettySize=auto;html=1;endArrow=ERmandOne;endFill=0;startArrow=ERzeroToMany;startFill=0;" edge="1" parent="1" source="4ziBVuI6i2216CSkwjeK-62" target="4ziBVuI6i2216CSkwjeK-58">
          <mxGeometry relative="1" as="geometry">
            <mxPoint x="100" y="390" as="targetPoint" />
            <Array as="points">
              <mxPoint x="90" y="400" />
            </Array>
          </mxGeometry>
        </mxCell>
        <mxCell id="4ziBVuI6i2216CSkwjeK-62" value="נושא בדיקה" style="swimlane;fontStyle=0;childLayout=stackLayout;horizontal=1;startSize=26;horizontalStack=0;resizeParent=1;resizeParentMax=0;resizeLast=0;collapsible=1;marginBottom=0;align=center;fontSize=14;" vertex="1" parent="1">
          <mxGeometry x="80" y="520" width="160" height="116" as="geometry" />
        </mxCell>
        <mxCell id="4ziBVuI6i2216CSkwjeK-63" value="שם" style="text;strokeColor=none;fillColor=none;spacingLeft=4;spacingRight=4;overflow=hidden;rotatable=0;points=[[0,0.5],[1,0.5]];portConstraint=eastwest;fontSize=12;whiteSpace=wrap;html=1;align=right;fontStyle=4" vertex="1" parent="4ziBVuI6i2216CSkwjeK-62">
          <mxGeometry y="26" width="160" height="30" as="geometry" />
        </mxCell>
        <mxCell id="4ziBVuI6i2216CSkwjeK-64" value="ערך נורמה עליון" style="text;strokeColor=none;fillColor=none;spacingLeft=4;spacingRight=4;overflow=hidden;rotatable=0;points=[[0,0.5],[1,0.5]];portConstraint=eastwest;fontSize=12;whiteSpace=wrap;html=1;align=right;" vertex="1" parent="4ziBVuI6i2216CSkwjeK-62">
          <mxGeometry y="56" width="160" height="30" as="geometry" />
        </mxCell>
        <mxCell id="4ziBVuI6i2216CSkwjeK-65" value="ערך נורמה תחתון" style="text;strokeColor=none;fillColor=none;spacingLeft=4;spacingRight=4;overflow=hidden;rotatable=0;points=[[0,0.5],[1,0.5]];portConstraint=eastwest;fontSize=12;whiteSpace=wrap;html=1;align=right;" vertex="1" parent="4ziBVuI6i2216CSkwjeK-62">
          <mxGeometry y="86" width="160" height="30" as="geometry" />
        </mxCell>
        <mxCell id="4ziBVuI6i2216CSkwjeK-71" value="פריט מעקב" style="swimlane;fontStyle=0;childLayout=stackLayout;horizontal=1;startSize=26;horizontalStack=0;resizeParent=1;resizeParentMax=0;resizeLast=0;collapsible=1;marginBottom=0;align=center;fontSize=14;" vertex="1" parent="1">
          <mxGeometry x="630" y="570" width="160" height="116" as="geometry" />
        </mxCell>
        <mxCell id="4ziBVuI6i2216CSkwjeK-73" value="מספר רץ" style="text;strokeColor=none;fillColor=none;spacingLeft=4;spacingRight=4;overflow=hidden;rotatable=0;points=[[0,0.5],[1,0.5]];portConstraint=eastwest;fontSize=12;whiteSpace=wrap;html=1;align=right;fontStyle=4" vertex="1" parent="4ziBVuI6i2216CSkwjeK-71">
          <mxGeometry y="26" width="160" height="30" as="geometry" />
        </mxCell>
        <mxCell id="4ziBVuI6i2216CSkwjeK-74" value="תאריך יצירה" style="text;strokeColor=none;fillColor=none;spacingLeft=4;spacingRight=4;overflow=hidden;rotatable=0;points=[[0,0.5],[1,0.5]];portConstraint=eastwest;fontSize=12;whiteSpace=wrap;html=1;align=right;" vertex="1" parent="4ziBVuI6i2216CSkwjeK-71">
          <mxGeometry y="56" width="160" height="30" as="geometry" />
        </mxCell>
        <mxCell id="4ziBVuI6i2216CSkwjeK-75" value="תוצאה אחרונה" style="text;strokeColor=none;fillColor=none;spacingLeft=4;spacingRight=4;overflow=hidden;rotatable=0;points=[[0,0.5],[1,0.5]];portConstraint=eastwest;fontSize=12;whiteSpace=wrap;html=1;align=right;" vertex="1" parent="4ziBVuI6i2216CSkwjeK-71">
          <mxGeometry y="86" width="160" height="30" as="geometry" />
        </mxCell>
        <mxCell id="4ziBVuI6i2216CSkwjeK-80" value="חוות דעת" style="swimlane;fontStyle=0;childLayout=stackLayout;horizontal=1;startSize=26;horizontalStack=0;resizeParent=1;resizeParentMax=0;resizeLast=0;collapsible=1;marginBottom=0;align=center;fontSize=14;" vertex="1" parent="1">
          <mxGeometry x="630" y="750" width="160" height="116" as="geometry" />
        </mxCell>
        <mxCell id="4ziBVuI6i2216CSkwjeK-81" value="מספר ייחודי" style="text;strokeColor=none;fillColor=none;spacingLeft=4;spacingRight=4;overflow=hidden;rotatable=0;points=[[0,0.5],[1,0.5]];portConstraint=eastwest;fontSize=12;whiteSpace=wrap;html=1;align=right;fontStyle=4" vertex="1" parent="4ziBVuI6i2216CSkwjeK-80">
          <mxGeometry y="26" width="160" height="30" as="geometry" />
        </mxCell>
        <mxCell id="4ziBVuI6i2216CSkwjeK-82" value="תאריך" style="text;strokeColor=none;fillColor=none;spacingLeft=4;spacingRight=4;overflow=hidden;rotatable=0;points=[[0,0.5],[1,0.5]];portConstraint=eastwest;fontSize=12;whiteSpace=wrap;html=1;align=right;" vertex="1" parent="4ziBVuI6i2216CSkwjeK-80">
          <mxGeometry y="56" width="160" height="30" as="geometry" />
        </mxCell>
        <mxCell id="4ziBVuI6i2216CSkwjeK-83" value="תוכן" style="text;strokeColor=none;fillColor=none;spacingLeft=4;spacingRight=4;overflow=hidden;rotatable=0;points=[[0,0.5],[1,0.5]];portConstraint=eastwest;fontSize=12;whiteSpace=wrap;html=1;align=right;" vertex="1" parent="4ziBVuI6i2216CSkwjeK-80">
          <mxGeometry y="86" width="160" height="30" as="geometry" />
        </mxCell>
        <mxCell id="4ziBVuI6i2216CSkwjeK-89" value="" style="edgeStyle=entityRelationEdgeStyle;fontSize=12;html=1;endArrow=ERzeroToMany;startArrow=ERmandOne;rounded=0;endFill=0;entryX=0.011;entryY=0.056;entryDx=0;entryDy=0;entryPerimeter=0;exitX=1;exitY=0.25;exitDx=0;exitDy=0;startFill=0;" edge="1" parent="1" source="4ziBVuI6i2216CSkwjeK-37" target="4ziBVuI6i2216CSkwjeK-7">
          <mxGeometry width="100" height="100" relative="1" as="geometry">
            <mxPoint x="390" y="190" as="sourcePoint" />
            <mxPoint x="490" y="90" as="targetPoint" />
          </mxGeometry>
        </mxCell>
        <mxCell id="4ziBVuI6i2216CSkwjeK-90" value="מטופל/מטפל" style="edgeLabel;html=1;align=center;verticalAlign=middle;resizable=0;points=[];" vertex="1" connectable="0" parent="4ziBVuI6i2216CSkwjeK-89">
          <mxGeometry x="0.0455" y="-2" relative="1" as="geometry">
            <mxPoint as="offset" />
          </mxGeometry>
        </mxCell>
        <mxCell id="4ziBVuI6i2216CSkwjeK-91" value="" style="edgeStyle=entityRelationEdgeStyle;fontSize=12;html=1;endArrow=ERzeroToMany;startArrow=ERzeroToMany;rounded=0;endFill=0;entryX=0;entryY=0.5;entryDx=0;entryDy=0;startFill=0;exitX=1;exitY=0.25;exitDx=0;exitDy=0;" edge="1" parent="1" source="4ziBVuI6i2216CSkwjeK-44" target="4ziBVuI6i2216CSkwjeK-10">
          <mxGeometry width="100" height="100" relative="1" as="geometry">
            <mxPoint x="50" y="240" as="sourcePoint" />
            <mxPoint x="536" y="25" as="targetPoint" />
          </mxGeometry>
        </mxCell>
        <mxCell id="4ziBVuI6i2216CSkwjeK-92" value="מטופל/מטפל" style="edgeLabel;html=1;align=center;verticalAlign=middle;resizable=0;points=[];" vertex="1" connectable="0" parent="4ziBVuI6i2216CSkwjeK-91">
          <mxGeometry x="0.0455" y="-2" relative="1" as="geometry">
            <mxPoint as="offset" />
          </mxGeometry>
        </mxCell>
        <mxCell id="4ziBVuI6i2216CSkwjeK-95" value="" style="edgeStyle=orthogonalEdgeStyle;rounded=0;orthogonalLoop=1;jettySize=auto;html=1;" edge="1" parent="1" source="4ziBVuI6i2216CSkwjeK-93">
          <mxGeometry relative="1" as="geometry">
            <mxPoint x="430" y="160" as="targetPoint" />
            <Array as="points">
              <mxPoint x="450" y="200" />
              <mxPoint x="430" y="200" />
            </Array>
          </mxGeometry>
        </mxCell>
        <mxCell id="4ziBVuI6i2216CSkwjeK-93" value="" style="ellipse;whiteSpace=wrap;html=1;align=center;fontStyle=4;" vertex="1" parent="1">
          <mxGeometry x="400" y="220" width="100" height="40" as="geometry" />
        </mxCell>
        <mxCell id="4ziBVuI6i2216CSkwjeK-96" value="תאריך שיוך" style="text;strokeColor=none;fillColor=none;spacingLeft=4;spacingRight=4;overflow=hidden;rotatable=0;points=[[0,0.5],[1,0.5]];portConstraint=eastwest;fontSize=12;whiteSpace=wrap;html=1;align=right;" vertex="1" parent="1">
          <mxGeometry x="340" y="225" width="150" height="30" as="geometry" />
        </mxCell>
        <mxCell id="4ziBVuI6i2216CSkwjeK-99" style="edgeStyle=orthogonalEdgeStyle;rounded=0;orthogonalLoop=1;jettySize=auto;html=1;exitX=1;exitY=0.5;exitDx=0;exitDy=0;entryX=0.5;entryY=0;entryDx=0;entryDy=0;endArrow=ERzeroToMany;endFill=0;startArrow=ERmandOne;startFill=0;" edge="1" parent="1" source="4ziBVuI6i2216CSkwjeK-17" target="4ziBVuI6i2216CSkwjeK-71">
          <mxGeometry relative="1" as="geometry" />
        </mxCell>
        <mxCell id="4ziBVuI6i2216CSkwjeK-116" value="רשימת מעקב" style="edgeLabel;html=1;align=center;verticalAlign=middle;resizable=0;points=[];" vertex="1" connectable="0" parent="4ziBVuI6i2216CSkwjeK-99">
          <mxGeometry x="0.3147" y="-1" relative="1" as="geometry">
            <mxPoint as="offset" />
          </mxGeometry>
        </mxCell>
        <mxCell id="4ziBVuI6i2216CSkwjeK-102" style="edgeStyle=orthogonalEdgeStyle;rounded=0;orthogonalLoop=1;jettySize=auto;html=1;exitX=-0.01;exitY=0.075;exitDx=0;exitDy=0;exitPerimeter=0;endArrow=ERmandOne;endFill=0;startArrow=ERzeroToMany;startFill=0;" edge="1" parent="1" source="4ziBVuI6i2216CSkwjeK-48">
          <mxGeometry relative="1" as="geometry">
            <mxPoint x="270" y="390" as="targetPoint" />
          </mxGeometry>
        </mxCell>
        <mxCell id="4ziBVuI6i2216CSkwjeK-111" style="edgeStyle=orthogonalEdgeStyle;rounded=0;orthogonalLoop=1;jettySize=auto;html=1;exitX=1;exitY=0.25;exitDx=0;exitDy=0;entryX=-0.01;entryY=0.153;entryDx=0;entryDy=0;entryPerimeter=0;endArrow=ERmandOne;endFill=0;startArrow=ERmandOne;startFill=0;" edge="1" parent="1" source="4ziBVuI6i2216CSkwjeK-107" target="4ziBVuI6i2216CSkwjeK-44">
          <mxGeometry relative="1" as="geometry" />
        </mxCell>
        <mxCell id="4ziBVuI6i2216CSkwjeK-107" value="תחום רפואה" style="swimlane;fontStyle=0;childLayout=stackLayout;horizontal=1;startSize=26;horizontalStack=0;resizeParent=1;resizeParentMax=0;resizeLast=0;collapsible=1;marginBottom=0;align=center;fontSize=14;" vertex="1" parent="1">
          <mxGeometry x="-100" y="190" width="160" height="86" as="geometry" />
        </mxCell>
        <mxCell id="4ziBVuI6i2216CSkwjeK-108" value="&lt;u&gt;שם&lt;/u&gt;" style="text;strokeColor=none;fillColor=none;spacingLeft=4;spacingRight=4;overflow=hidden;rotatable=0;points=[[0,0.5],[1,0.5]];portConstraint=eastwest;fontSize=12;whiteSpace=wrap;html=1;align=right;" vertex="1" parent="4ziBVuI6i2216CSkwjeK-107">
          <mxGeometry y="26" width="160" height="30" as="geometry" />
        </mxCell>
        <mxCell id="4ziBVuI6i2216CSkwjeK-46" value="משך תקופת התמחות" style="text;strokeColor=none;fillColor=none;spacingLeft=4;spacingRight=4;overflow=hidden;rotatable=0;points=[[0,0.5],[1,0.5]];portConstraint=eastwest;fontSize=12;whiteSpace=wrap;html=1;align=right;" vertex="1" parent="4ziBVuI6i2216CSkwjeK-107">
          <mxGeometry y="56" width="160" height="30" as="geometry" />
        </mxCell>
        <mxCell id="4ziBVuI6i2216CSkwjeK-113" value="(1): אין דרך &quot;לחסום&quot; פיסות מידע בתלות&lt;br&gt;אם הבדיקה הופנתה על ידי רופא משפחה&lt;br&gt;או רופא מקצועי, אז אילוץ זה ימומש על&lt;br&gt;ידי האפליקציה ולא המודל" style="text;html=1;align=right;verticalAlign=middle;resizable=0;points=[];autosize=1;strokeColor=none;fillColor=none;" vertex="1" parent="1">
          <mxGeometry x="360" y="536" width="210" height="70" as="geometry" />
        </mxCell>
        <mxCell id="4ziBVuI6i2216CSkwjeK-114" value="" style="edgeStyle=orthogonalEdgeStyle;rounded=0;orthogonalLoop=1;jettySize=auto;html=1;fillColor=#d5e8d4;strokeColor=#82b366;entryX=0.5;entryY=1;entryDx=0;entryDy=0;" edge="1" parent="1" source="4ziBVuI6i2216CSkwjeK-55" target="4ziBVuI6i2216CSkwjeK-115">
          <mxGeometry relative="1" as="geometry">
            <mxPoint x="610" y="770" as="targetPoint" />
          </mxGeometry>
        </mxCell>
        <mxCell id="4ziBVuI6i2216CSkwjeK-115" value="לא דחוף, דחוף, דחוף מאוד" style="ellipse;whiteSpace=wrap;html=1;fillColor=#d5e8d4;strokeColor=#82b366;" vertex="1" parent="1">
          <mxGeometry x="550" y="286" width="120" height="80" as="geometry" />
        </mxCell>
        <mxCell id="4ziBVuI6i2216CSkwjeK-117" style="edgeStyle=orthogonalEdgeStyle;rounded=0;orthogonalLoop=1;jettySize=auto;html=1;exitX=0;exitY=0.5;exitDx=0;exitDy=0;endArrow=ERmandOne;endFill=0;startArrow=ERzeroToMany;startFill=0;" edge="1" parent="1" source="4ziBVuI6i2216CSkwjeK-73">
          <mxGeometry relative="1" as="geometry">
            <mxPoint x="240" y="620" as="targetPoint" />
            <Array as="points">
              <mxPoint x="590" y="611" />
              <mxPoint x="590" y="650" />
              <mxPoint x="435" y="650" />
              <mxPoint x="435" y="620" />
            </Array>
          </mxGeometry>
        </mxCell>
        <mxCell id="4ziBVuI6i2216CSkwjeK-118" value="(2):&amp;nbsp; כל הפסקה השנייה מהסוף בדף שיעורי בית מדברת על אילוץ שלא ניתן לממש במודל." style="text;html=1;strokeColor=none;fillColor=none;align=center;verticalAlign=middle;whiteSpace=wrap;rounded=0;" vertex="1" parent="1">
          <mxGeometry x="410" y="670" width="150" height="30" as="geometry" />
        </mxCell>
      </root>
    </mxGraphModel>
  </diagram>
</mxfile>
